HIERARCHY
ROOT root     
{
	OFFSET 0.0000 0.0000 0.0000
	CHANNELS 6 Xposition Yposition Zposition Zrotation Yrotation Xrotation
	JOINT pelvis   
	{
		OFFSET 0.0000 0.0000 0.0000
		CHANNELS 3 Zrotation Yrotation Xrotation
		JOINT thorax   
		{
			OFFSET 0.0000 23.0750 -5.0000
			CHANNELS 3 Zrotation Yrotation Xrotation
			JOINT rclavicle
			{
				OFFSET 0.0000 28.0009 0.0000
				CHANNELS 3 Zrotation Yrotation Xrotation
				JOINT rhumerus 
				{
					OFFSET -18.5725 5.5939 0.0000
					CHANNELS 3 Zrotation Yrotation Xrotation
					JOINT rradius  
					{
						OFFSET -24.8459 0.0000 0.0000
						CHANNELS 3 Zrotation Yrotation Xrotation
						JOINT rhand    
						{
							OFFSET -24.5477 0.0000 0.0000
							CHANNELS 3 Zrotation Yrotation Xrotation
							End Site
							{
								OFFSET -8.1826 0.0000 0.0000
							}
						}
					}
				}
			}
			JOINT lclavicle
			{
				OFFSET 0.0000 28.0009 0.0000
				CHANNELS 3 Zrotation Yrotation Xrotation
				JOINT lhumerus 
				{
					OFFSET 18.5725 5.5939 0.0000
					CHANNELS 3 Zrotation Yrotation Xrotation
					JOINT lradius  
					{
						OFFSET 24.8459 0.0000 0.0000
						CHANNELS 3 Zrotation Yrotation Xrotation
						JOINT lhand    
						{
							OFFSET 24.5477 0.0000 0.0000
							CHANNELS 3 Zrotation Yrotation Xrotation
							End Site
							{
								OFFSET 8.1826 0.0000 0.0000
							}
						}
					}
				}
			}
			JOINT head     
			{
				OFFSET 0.0000 35.2030 0.0000
				CHANNELS 3 Zrotation Yrotation Xrotation
				End Site
				{
					OFFSET 0.0000 11.7343 0.0000
				}
			}
		}
		JOINT rfemur   
		{
			OFFSET -8.2817 0.0000 0.0000
			CHANNELS 3 Zrotation Yrotation Xrotation
			JOINT rtibia   
			{
				OFFSET 0.0000 -43.3627 0.0000
				CHANNELS 3 Zrotation Yrotation Xrotation
				JOINT rfoot    
				{
					OFFSET 0.0000 -38.2947 0.0000
					CHANNELS 3 Zrotation Yrotation Xrotation
					JOINT rtoes    
					{
						OFFSET 0.0000 0.0000 16.6054
						CHANNELS 3 Zrotation Yrotation Xrotation
						End Site
						{
							OFFSET 0.0000 0.0000 5.5351
						}
					}
				}
			}
		}
		JOINT lfemur   
		{
			OFFSET 8.2817 0.0000 0.0000
			CHANNELS 3 Zrotation Yrotation Xrotation
			JOINT ltibia   
			{
				OFFSET 0.0000 -43.3627 0.0000
				CHANNELS 3 Zrotation Yrotation Xrotation
				JOINT lfoot    
				{
					OFFSET 0.0000 -38.2947 0.0000
					CHANNELS 3 Zrotation Yrotation Xrotation
					JOINT ltoes    
					{
						OFFSET 0.0000 0.0000 16.6054
						CHANNELS 3 Zrotation Yrotation Xrotation
						End Site
						{
							OFFSET 0.0000 0.0000 5.5351
						}
					}
				}
			}
		}
	}
}
MOTION
Frames: 13
Frame Time: .0333333
-37.324 80.485 -3.2287 42.6083 84.8489 68.4005 0 -0 0 -0.460758 3.99172 21.853 16.4053 -6.28503 1.09382e-05 46.5593 2.27909 4.55514 -180 78.3656 -180 -6.10362 1.75416 -0.0934958 -14.7703 16.6666 -2.96331e-05 -53.3377 37.6386 19.2747 1.32728e-06 -75.2411 -1.02291e-06 -9.06803 2.43107 -0.192795 7.83063 -13.9728 -11.4168 6.26527 -12.2029 -37.2713 -0 -0 55.2879 -7.6933e-07 1.23122 -12.6408 -0.269495 8.63975e-07 -37.5748 -13.8948 8.99798 -65.9641 -0 -0 41.6532 -3.65805e-06 6.38566 -2.14198 -0.239697 -2.74447e-08 -33.5803 
-36.166 80.421 -3.0793 39.4645 84.7527 65.1168 0 -0 0 -0.667062 4.18785 21.8089 16.4189 -6.37023 -1.27984e-05 46.3684 2.08174 4.60954 -180 77.8559 -180 -6.08284 1.74365 -0.0926009 -14.719 16.8667 -1.82079e-05 -53.2809 37.9218 19.3545 0 -75.553 -0 -9.00872 2.33531 -0.183997 7.80829 -14.0734 -11.6768 6.11753 -12.0534 -36.1956 -0 -0 55.1393 4.93466e-07 1.36458 -12.4276 -0.293695 -1.51765e-07 -38.9597 -14.0942 9.06706 -65.8841 -0 -0 39.3771 3.40872e-06 5.54586 -1.61815 -0.157102 -9.43089e-07 -35.3095 
-34.974 80.332 -2.9244 36.2801 84.6421 61.7452 0 -0 0 -0.851018 4.3617 21.7849 16.445 -6.45221 1.23015e-05 46.2269 1.86982 4.69142 -180 77.4274 -180 -6.05112 1.73393 -0.0917024 -14.6795 17.0551 -9.24962e-05 -53.2233 38.1353 19.4643 0 -75.8313 0 -8.91354 2.24896 -0.175292 7.76215 -14.1613 -11.8693 5.96941 -11.8911 -35.0704 -0 -0 55.0445 -9.72859e-07 1.48812 -12.2281 -0.315199 4.97465e-07 -40.2234 -14.144 9.11704 -65.6767 -0 -0 37.3464 7.65585e-07 4.70654 -1.07861 -0.0888 6.95892e-07 -36.9727 
-33.753 80.219 -2.7637 33.0657 84.5346 58.3049 0 -0 0 -1.01326 4.50423 21.7611 16.486 -6.54154 2.6196e-05 46.131 1.66092 4.81348 -180 77.0867 -180 -6.00477 1.73065 -0.0907991 -14.6574 17.2357 -0.000140763 -53.1472 38.2857 19.6106 7.73212e-07 -76.0792 -9.88245e-07 -8.7842 2.17566 -0.1671 7.69311 -14.2339 -11.9852 5.82665 -11.7201 -33.9175 -0 -0 55.0097 5.95295e-06 1.5928 -12.0164 -0.331704 -2.74596e-06 -41.6095 -14.0261 9.13138 -65.3666 -0 -0 35.6141 -3.68236e-08 3.91583 -0.48999 -0.0335002 -2.40202e-07 -38.6419 
-32.505 80.08 -2.5973 29.8421 84.4225 54.822 0 -0 0 -1.15566 4.61574 21.7357 16.5416 -6.62963 -2.36244e-06 46.0789 1.44496 4.96828 180 76.835 180 -5.9366 1.73677 -0.0901006 -14.6395 17.4085 0.000126967 -53.0684 38.3679 19.7901 2.36414e-06 -76.2885 -2.52151e-06 -8.62841 2.11383 -0.1595 7.60674 -14.2879 -12.0239 5.6912 -11.5481 -32.7477 -0 -0 55.0426 -9.97409e-06 1.68732 -11.8067 -0.345297 -1.06364e-06 -43.0101 -13.7285 9.10145 -64.9803 -0 -0 34.2433 -1.02753e-07 3.21542 0.135797 0.0076001 3.71162e-08 -40.0673 
-31.233 79.915 -2.4254 26.6491 84.3022 51.346 0 -0 0 -1.2834 4.69473 21.6991 16.6108 -6.71583 -2.87908e-06 46.0678 1.22133 5.15371 180 76.6659 180 -5.84127 1.75733 -0.0897032 -14.6275 17.5707 -4.14695e-05 -52.9903 38.3882 19.9933 2.39477e-06 -76.4592 -2.55212e-06 -8.45564 2.06458 -0.152597 7.51104 -14.3212 -11.9885 5.56332 -11.3772 -31.5821 -0 -0 55.1545 1.33583e-05 1.7766 -11.5799 -0.356695 4.96731e-06 -44.4998 -13.257 9.02319 -64.5517 -0 -0 33.2823 -3.72933e-08 2.6351 0.807405 0.0371993 -4.55811e-07 -41.2104 
-29.946 79.723 -2.2499 23.5449 84.1858 47.9509 0 -0 0 -1.40746 4.7359 21.6308 16.696 -6.8086 9.75908e-06 46.0969 1.0023 5.37429 -180 76.5833 -180 -5.7167 1.79486 -0.0896001 -14.6236 17.7238 -1.5858e-05 -52.9034 38.35 20.2176 2.4203e-06 -76.6015 -2.57762e-06 -8.26757 2.02629 -0.146502 7.41695 -14.3285 -11.8895 5.44011 -11.2101 -30.4553 -0 -0 55.3618 -7.81157e-06 1.86495 -11.294 -0.365397 2.09932e-07 -46.2873 -12.6211 8.87862 -64.1172 -0 -0 32.7513 -1.33384e-06 2.20759 1.54756 0.0597002 2.57831e-07 -42.1598 
-28.65 79.506 -2.0722 20.5908 84.049 44.7174 0 -0 0 -1.53695 4.74037 21.5252 16.799 -6.90698 -2.01135e-05 46.1658 0.786791 5.62508 -180 76.5872 -180 -5.56038 1.85164 -0.0899039 -14.6289 17.8653 5.07564e-05 -52.8064 38.2578 20.4519 1.0296e-06 -76.708 -8.1471e-07 -8.06869 1.99591 -0.140803 7.33594 -14.3054 -11.742 5.31827 -11.0469 -29.3957 -0 -0 55.6791 -3.57526e-06 1.96185 -10.9072 -0.371293 -3.71575e-06 -48.5052 -11.8436 8.66472 -63.7154 -0 -0 32.6682 1.77717e-08 1.94169 2.34628 0.0794998 -2.18847e-07 -42.8017 
-27.349 79.266 -1.8924 17.7745 83.9064 41.6268 0 -0 0 -1.67942 4.71831 21.3882 16.9171 -6.99716 -1.51462e-05 46.2776 0.553767 5.88621 -180 76.6579 -180 -5.36876 1.92941 -0.0905017 -14.6383 17.9848 -0.000170434 -52.7159 38.1184 20.6702 0 -76.7854 -0 -7.87158 1.97373 -0.135805 7.28036 -14.251 -11.5652 5.19144 -10.8806 -28.4164 -0 -0 56.1215 -3.0726e-06 2.08292 -10.4025 -0.376296 -3.86781e-06 -51.0508 -10.9793 8.4133 -63.3767 -0 -0 33.0447 1.46843e-07 1.80512 3.17569 0.1 8.46832e-08 -43.0306 
-26.048 79.006 -1.712 15.1642 83.7298 38.7663 0 -0 0 -1.84419 4.67318 21.2166 17.0515 -7.07986 -1.07411e-05 46.4327 0.305243 6.15161 180 76.7973 180 -5.14387 2.02726 -0.0911013 -14.6552 18.0776 -5.36355e-05 -52.6308 37.9304 20.8603 1.16512e-06 -76.8406 -1.46897e-06 -7.67545 1.95693 -0.131303 7.26019 -14.1645 -11.3798 5.05531 -10.7066 -27.5439 -0 -0 56.7062 1.37296e-06 2.23459 -9.73471 -0.378 3.73752e-06 -53.9774 -10.0702 8.13777 -63.1258 -0 -0 33.8552 -1.8081e-06 1.78066 4.01242 0.124598 -1.12964e-06 -42.7858 
-24.752 78.729 -1.531 12.7803 83.5295 36.1494 0 -0 0 -2.03856 4.61569 21.0216 17.203 -7.14562 1.5167e-05 46.635 0.0275485 6.40364 180 76.9915 180 -4.88799 2.14403 -0.0915002 -14.6801 18.133 0.000110348 -52.5548 37.6974 21.0019 2.47208e-06 -76.871 -2.62936e-06 -7.48507 1.94753 -0.127404 7.28323 -14.0481 -11.2058 4.90381 -10.5155 -26.7872 -0 -0 57.4448 1.09602e-06 2.42363 -8.88854 -0.3747 1.72346e-07 -57.118 -9.17278 7.87277 -62.9743 -0 -0 35.0631 2.81467e-07 1.83011 4.81111 0.153504 1.06258e-06 -41.9993 
-23.468 78.44 -1.3505 10.6825 83.3028 33.8474 0 -0 0 -2.26602 4.54286 20.8042 17.3718 -7.20182 2.40289e-05 46.888 -0.26107 6.64562 -180 77.2512 -180 -4.60912 2.27443 -0.0915026 -14.7258 18.1516 0.000103159 -52.4818 37.4123 21.0878 1.04237e-06 -76.891 -8.27522e-07 -7.28535 1.93942 -0.123499 7.35176 -13.8947 -11.0605 4.73954 -10.3049 -26.1757 -0 -0 58.3488 1.15643e-06 2.63493 -7.7959 -0.357698 -1.80997e-06 -60.6597 -8.3074 7.62016 -62.9282 -0 -0 36.6121 -2.94437e-07 1.94939 5.51907 0.187598 -1.44959e-06 -40.5584 
-22.198 78.143 -1.1693 8.85906 83.0489 31.8359 0 -0 0 -2.53075 4.46967 20.5884 17.5616 -7.23221 -3.28956e-05 47.1944 -0.583796 6.85111 -180 77.5596 -180 -4.31037 2.41589 -0.0908992 -14.7859 18.1189 -0.00011542 -52.4235 37.0727 21.098 0 -76.8958 -0 -7.08365 1.94203 -0.120201 7.46657 -13.7122 -10.9564 4.5578 -10.0637 -25.7 -0 -0 59.4188 -1.65755e-06 2.86823 -6.50657 -0.3253 -1.50298e-06 -63.9858 -7.53124 7.42705 -62.9703 -0 -0 38.427 -1.77279e-06 2.09906 6.07329 0.222204 1.94385e-06 -38.5339 
